<svg width="157" height="24" viewBox="0 0 157 24" fill="none" xmlns="http://www.w3.org/2000/svg">
<g clip-path="url(#clip0_1_230)">
<path d="M19 9L20.25 6.25L23 5L20.25 3.75L19 1L17.75 3.75L15 5L17.75 6.25L19 9Z" fill="#464646"/>
<path d="M19 15L17.75 17.75L15 19L17.75 20.25L19 23L20.25 20.25L23 19L20.25 17.75L19 15Z" fill="#464646"/>
<path d="M11.5 9.5L9 4L6.5 9.5L1 12L6.5 14.5L9 20L11.5 14.5L17 12L11.5 9.5ZM9.99 12.99L9 15.17L8.01 12.99L5.83 12L8.01 11.01L9 8.83L9.99 11.01L12.17 12L9.99 12.99Z" fill="#464646"/>
</g>
<path d="M33.184 17.5V6.14H40.816V8.076H35.392V11.004H39.904V12.796H35.392V17.5H33.184ZM46.7336 10.972C46.083 10.972 45.5016 11.1 44.9896 11.356C44.4776 11.6013 44.1096 11.9587 43.8856 12.428V17.5H41.7416V9.116H43.7096V10.908C44.0083 10.332 44.387 9.87867 44.8456 9.548C45.3043 9.21733 45.7896 9.036 46.3016 9.004C46.419 9.004 46.5096 9.004 46.5736 9.004C46.6376 9.004 46.691 9.00933 46.7336 9.02V10.972ZM47.3063 15.02C47.3063 14.476 47.4556 14.0013 47.7543 13.596C48.0636 13.18 48.4903 12.86 49.0343 12.636C49.5783 12.412 50.2023 12.3 50.9062 12.3C51.2583 12.3 51.6156 12.3267 51.9783 12.38C52.3409 12.4333 52.6556 12.5187 52.9223 12.636V12.188C52.9223 11.6547 52.7623 11.244 52.4423 10.956C52.1329 10.668 51.6689 10.524 51.0503 10.524C50.5916 10.524 50.1543 10.604 49.7383 10.764C49.3223 10.924 48.8849 11.1587 48.4263 11.468L47.7383 10.06C48.2929 9.69733 48.8583 9.42533 49.4343 9.244C50.0209 9.06267 50.6343 8.972 51.2743 8.972C52.4689 8.972 53.3969 9.27067 54.0583 9.868C54.7303 10.4653 55.0663 11.3187 55.0663 12.428V15.1C55.0663 15.324 55.1036 15.484 55.1783 15.58C55.2636 15.676 55.3969 15.7347 55.5783 15.756V17.5C55.3863 17.532 55.2103 17.5587 55.0503 17.58C54.9009 17.6013 54.7729 17.612 54.6663 17.612C54.2396 17.612 53.9143 17.516 53.6903 17.324C53.4769 17.132 53.3436 16.8973 53.2903 16.62L53.2423 16.188C52.8796 16.6573 52.4263 17.02 51.8823 17.276C51.3383 17.532 50.7836 17.66 50.2183 17.66C49.6636 17.66 49.1623 17.548 48.7143 17.324C48.2769 17.0893 47.9303 16.7747 47.6743 16.38C47.4289 15.9747 47.3063 15.5213 47.3063 15.02ZM52.5223 15.452C52.6396 15.324 52.7356 15.196 52.8103 15.068C52.8849 14.94 52.9223 14.8227 52.9223 14.716V13.868C52.6663 13.7613 52.3889 13.6813 52.0903 13.628C51.7916 13.564 51.5089 13.532 51.2423 13.532C50.6876 13.532 50.2289 13.6547 49.8663 13.9C49.5143 14.1347 49.3383 14.4493 49.3383 14.844C49.3383 15.0573 49.3969 15.26 49.5143 15.452C49.6316 15.644 49.8023 15.7987 50.0263 15.916C50.2503 16.0333 50.5169 16.092 50.8263 16.092C51.1463 16.092 51.4609 16.0333 51.7703 15.916C52.0796 15.788 52.3303 15.6333 52.5223 15.452ZM64.8618 17.5H62.7178V12.796C62.7178 12.124 62.6004 11.6333 62.3658 11.324C62.1311 11.0147 61.8058 10.86 61.3898 10.86C61.1018 10.86 60.8084 10.9347 60.5098 11.084C60.2218 11.2333 59.9604 11.4413 59.7258 11.708C59.4911 11.964 59.3204 12.2627 59.2138 12.604V17.5H57.0698V9.116H59.0058V10.668C59.2191 10.3053 59.4911 10.0013 59.8218 9.756C60.1524 9.5 60.5311 9.308 60.9578 9.18C61.3951 9.04133 61.8538 8.972 62.3338 8.972C62.8564 8.972 63.2831 9.068 63.6138 9.26C63.9551 9.44133 64.2111 9.692 64.3818 10.012C64.5631 10.3213 64.6858 10.6733 64.7498 11.068C64.8244 11.4627 64.8618 11.8627 64.8618 12.268V17.5ZM70.63 17.66C69.9473 17.66 69.334 17.548 68.79 17.324C68.246 17.0893 67.782 16.7693 67.398 16.364C67.014 15.948 66.7153 15.4787 66.502 14.956C66.2993 14.4333 66.198 13.884 66.198 13.308C66.198 12.5187 66.374 11.7987 66.726 11.148C67.0887 10.4867 67.6007 9.95867 68.262 9.564C68.9233 9.16933 69.7073 8.972 70.614 8.972C71.5207 8.972 72.2993 9.16933 72.95 9.564C73.6007 9.95867 74.086 10.476 74.406 11.116L72.31 11.756C72.1287 11.4467 71.8887 11.212 71.59 11.052C71.2913 10.8813 70.9607 10.796 70.598 10.796C70.1927 10.796 69.8193 10.9027 69.478 11.116C69.1473 11.3187 68.886 11.612 68.694 11.996C68.502 12.3693 68.406 12.8067 68.406 13.308C68.406 13.7987 68.502 14.236 68.694 14.62C68.8967 14.9933 69.1633 15.292 69.494 15.516C69.8247 15.7293 70.1927 15.836 70.598 15.836C70.854 15.836 71.094 15.7933 71.318 15.708C71.5527 15.6227 71.7607 15.5053 71.942 15.356C72.1233 15.2067 72.2567 15.036 72.342 14.844L74.438 15.484C74.246 15.9 73.9633 16.2733 73.59 16.604C73.2273 16.9347 72.7953 17.196 72.294 17.388C71.8033 17.5693 71.2487 17.66 70.63 17.66ZM75.7573 17.5V9.116H77.9013V17.5H75.7573ZM75.7573 7.948V5.82H77.9013V7.948H75.7573ZM82.9234 17.66C82.2087 17.66 81.526 17.5427 80.8754 17.308C80.2247 17.0733 79.6647 16.7267 79.1954 16.268L79.9634 14.876C80.4647 15.2813 80.9554 15.58 81.4354 15.772C81.926 15.964 82.3954 16.06 82.8434 16.06C83.2594 16.06 83.59 15.9853 83.8354 15.836C84.0914 15.6867 84.2194 15.4627 84.2194 15.164C84.2194 14.9613 84.15 14.8067 84.0114 14.7C83.8727 14.5827 83.67 14.4813 83.4034 14.396C83.1474 14.3107 82.8327 14.2147 82.4594 14.108C81.8407 13.9053 81.3234 13.708 80.9074 13.516C80.4914 13.324 80.1767 13.084 79.9634 12.796C79.7607 12.4973 79.6594 12.1187 79.6594 11.66C79.6594 11.1053 79.798 10.6307 80.0754 10.236C80.3634 9.83067 80.758 9.516 81.2594 9.292C81.7714 9.068 82.3687 8.956 83.0514 8.956C83.6487 8.956 84.214 9.052 84.7474 9.244C85.2807 9.42533 85.766 9.724 86.2034 10.14L85.3394 11.5C84.9127 11.1693 84.5074 10.9293 84.1234 10.78C83.7394 10.62 83.35 10.54 82.9554 10.54C82.7314 10.54 82.518 10.5667 82.3154 10.62C82.1234 10.6733 81.9634 10.764 81.8354 10.892C81.718 11.0093 81.6594 11.18 81.6594 11.404C81.6594 11.6067 81.7127 11.7667 81.8194 11.884C81.9367 11.9907 82.1074 12.0867 82.3314 12.172C82.566 12.2573 82.8487 12.3533 83.1794 12.46C83.8514 12.652 84.4167 12.8493 84.8754 13.052C85.3447 13.2547 85.6967 13.5053 85.9314 13.804C86.166 14.092 86.2834 14.492 86.2834 15.004C86.2834 15.836 85.9794 16.4867 85.3714 16.956C84.7634 17.4253 83.9474 17.66 82.9234 17.66ZM91.7934 17.5V6.14H95.9214C97.1587 6.14 98.1934 6.396 99.0254 6.908C99.8574 7.40933 100.481 8.092 100.897 8.956C101.313 9.80933 101.521 10.7587 101.521 11.804C101.521 12.956 101.292 13.9587 100.833 14.812C100.375 15.6653 99.724 16.3267 98.8814 16.796C98.0494 17.2653 97.0627 17.5 95.9214 17.5H91.7934ZM99.2974 11.804C99.2974 11.068 99.164 10.4227 98.8974 9.868C98.6307 9.30267 98.2467 8.86533 97.7454 8.556C97.244 8.236 96.636 8.076 95.9214 8.076H94.0014V15.564H95.9214C96.6467 15.564 97.26 15.404 97.7614 15.084C98.2627 14.7533 98.6414 14.3053 98.8974 13.74C99.164 13.164 99.2974 12.5187 99.2974 11.804ZM106.927 17.66C106.255 17.66 105.647 17.548 105.103 17.324C104.559 17.0893 104.095 16.7747 103.711 16.38C103.327 15.9747 103.028 15.516 102.815 15.004C102.612 14.4813 102.511 13.932 102.511 13.356C102.511 12.556 102.687 11.8253 103.039 11.164C103.401 10.5027 103.913 9.97467 104.575 9.58C105.247 9.17467 106.036 8.972 106.943 8.972C107.86 8.972 108.644 9.17467 109.295 9.58C109.945 9.97467 110.441 10.5027 110.783 11.164C111.135 11.8147 111.311 12.5187 111.311 13.276C111.311 13.404 111.305 13.5373 111.295 13.676C111.284 13.804 111.273 13.9107 111.263 13.996H104.783C104.825 14.4227 104.948 14.796 105.151 15.116C105.364 15.436 105.631 15.6813 105.951 15.852C106.281 16.012 106.633 16.092 107.007 16.092C107.433 16.092 107.833 15.9907 108.207 15.788C108.591 15.5747 108.852 15.2973 108.991 14.956L110.831 15.468C110.628 15.8947 110.335 16.2733 109.951 16.604C109.577 16.9347 109.135 17.196 108.623 17.388C108.111 17.5693 107.545 17.66 106.927 17.66ZM104.735 12.636H109.119C109.076 12.2093 108.953 11.8413 108.751 11.532C108.559 11.212 108.303 10.9667 107.983 10.796C107.663 10.6147 107.305 10.524 106.911 10.524C106.527 10.524 106.175 10.6147 105.855 10.796C105.545 10.9667 105.289 11.212 105.087 11.532C104.895 11.8413 104.777 12.2093 104.735 12.636ZM112.601 5.82H114.745V14.812C114.745 15.196 114.809 15.4573 114.937 15.596C115.065 15.724 115.241 15.788 115.465 15.788C115.635 15.788 115.811 15.7667 115.993 15.724C116.174 15.6813 116.334 15.628 116.473 15.564L116.761 17.196C116.473 17.3347 116.137 17.4413 115.753 17.516C115.369 17.5907 115.022 17.628 114.713 17.628C114.041 17.628 113.518 17.452 113.145 17.1C112.782 16.7373 112.601 16.2253 112.601 15.564V5.82ZM120.975 17.548C120.42 17.548 119.908 17.4413 119.439 17.228C118.98 17.004 118.58 16.6947 118.239 16.3C117.908 15.9053 117.652 15.452 117.471 14.94C117.289 14.428 117.199 13.884 117.199 13.308C117.199 12.7 117.295 12.1347 117.487 11.612C117.679 11.0893 117.945 10.6307 118.287 10.236C118.639 9.83067 119.049 9.52133 119.519 9.308C119.999 9.084 120.527 8.972 121.103 8.972C121.753 8.972 122.324 9.12133 122.815 9.42C123.305 9.708 123.711 10.0973 124.031 10.588V9.116H125.903V17.1C125.903 17.932 125.7 18.6413 125.295 19.228C124.9 19.8253 124.351 20.2787 123.647 20.588C122.943 20.908 122.143 21.068 121.247 21.068C120.34 21.068 119.572 20.9133 118.943 20.604C118.313 20.3053 117.775 19.8787 117.327 19.324L118.495 18.188C118.815 18.5827 119.215 18.892 119.695 19.116C120.185 19.34 120.703 19.452 121.247 19.452C121.705 19.452 122.121 19.3667 122.495 19.196C122.879 19.036 123.183 18.78 123.407 18.428C123.641 18.0867 123.759 17.644 123.759 17.1V16.044C123.481 16.524 123.087 16.8973 122.575 17.164C122.073 17.42 121.54 17.548 120.975 17.548ZM121.695 15.836C121.929 15.836 122.153 15.7987 122.367 15.724C122.58 15.6493 122.777 15.548 122.959 15.42C123.14 15.292 123.3 15.1427 123.439 14.972C123.577 14.7907 123.684 14.6093 123.759 14.428V12.428C123.631 12.0973 123.449 11.8093 123.215 11.564C122.991 11.3187 122.735 11.132 122.447 11.004C122.169 10.8653 121.876 10.796 121.567 10.796C121.236 10.796 120.937 10.8653 120.671 11.004C120.404 11.1427 120.175 11.34 119.983 11.596C119.791 11.8413 119.641 12.1187 119.535 12.428C119.439 12.7267 119.391 13.0413 119.391 13.372C119.391 13.7133 119.449 14.0333 119.567 14.332C119.684 14.6307 119.844 14.892 120.047 15.116C120.26 15.34 120.505 15.516 120.783 15.644C121.071 15.772 121.375 15.836 121.695 15.836ZM127.259 15.02C127.259 14.476 127.409 14.0013 127.707 13.596C128.017 13.18 128.443 12.86 128.987 12.636C129.531 12.412 130.155 12.3 130.859 12.3C131.211 12.3 131.569 12.3267 131.931 12.38C132.294 12.4333 132.609 12.5187 132.875 12.636V12.188C132.875 11.6547 132.715 11.244 132.395 10.956C132.086 10.668 131.622 10.524 131.003 10.524C130.545 10.524 130.107 10.604 129.691 10.764C129.275 10.924 128.838 11.1587 128.379 11.468L127.691 10.06C128.246 9.69733 128.811 9.42533 129.387 9.244C129.974 9.06267 130.587 8.972 131.227 8.972C132.422 8.972 133.35 9.27067 134.011 9.868C134.683 10.4653 135.019 11.3187 135.019 12.428V15.1C135.019 15.324 135.057 15.484 135.131 15.58C135.217 15.676 135.35 15.7347 135.531 15.756V17.5C135.339 17.532 135.163 17.5587 135.003 17.58C134.854 17.6013 134.726 17.612 134.619 17.612C134.193 17.612 133.867 17.516 133.643 17.324C133.43 17.132 133.297 16.8973 133.243 16.62L133.195 16.188C132.833 16.6573 132.379 17.02 131.835 17.276C131.291 17.532 130.737 17.66 130.171 17.66C129.617 17.66 129.115 17.548 128.667 17.324C128.23 17.0893 127.883 16.7747 127.627 16.38C127.382 15.9747 127.259 15.5213 127.259 15.02ZM132.475 15.452C132.593 15.324 132.689 15.196 132.763 15.068C132.838 14.94 132.875 14.8227 132.875 14.716V13.868C132.619 13.7613 132.342 13.6813 132.043 13.628C131.745 13.564 131.462 13.532 131.195 13.532C130.641 13.532 130.182 13.6547 129.819 13.9C129.467 14.1347 129.291 14.4493 129.291 14.844C129.291 15.0573 129.35 15.26 129.467 15.452C129.585 15.644 129.755 15.7987 129.979 15.916C130.203 16.0333 130.47 16.092 130.779 16.092C131.099 16.092 131.414 16.0333 131.723 15.916C132.033 15.788 132.283 15.6333 132.475 15.452ZM136.511 13.308C136.511 12.4973 136.671 11.7667 136.991 11.116C137.311 10.4547 137.754 9.932 138.319 9.548C138.884 9.164 139.53 8.972 140.255 8.972C140.874 8.972 141.428 9.12667 141.919 9.436C142.42 9.73467 142.81 10.1187 143.087 10.588V5.82H145.231V15.1C145.231 15.324 145.268 15.484 145.343 15.58C145.418 15.676 145.546 15.7347 145.727 15.756V17.5C145.354 17.5747 145.05 17.612 144.815 17.612C144.431 17.612 144.111 17.516 143.855 17.324C143.61 17.132 143.471 16.8813 143.439 16.572L143.407 16.044C143.098 16.5667 142.676 16.9667 142.143 17.244C141.62 17.5213 141.071 17.66 140.495 17.66C139.919 17.66 139.386 17.548 138.895 17.324C138.415 17.1 137.994 16.7907 137.631 16.396C137.279 16.0013 137.002 15.5427 136.799 15.02C136.607 14.4867 136.511 13.916 136.511 13.308ZM143.087 14.428V12.428C142.98 12.1187 142.81 11.8413 142.575 11.596C142.34 11.3507 142.079 11.1587 141.791 11.02C141.503 10.8707 141.215 10.796 140.927 10.796C140.596 10.796 140.298 10.8653 140.031 11.004C139.764 11.1427 139.53 11.3293 139.327 11.564C139.135 11.7987 138.986 12.0707 138.879 12.38C138.783 12.6893 138.735 13.0147 138.735 13.356C138.735 13.6973 138.788 14.0227 138.895 14.332C139.012 14.6307 139.178 14.892 139.391 15.116C139.604 15.34 139.85 15.516 140.127 15.644C140.415 15.772 140.724 15.836 141.055 15.836C141.258 15.836 141.46 15.804 141.663 15.74C141.876 15.6653 142.074 15.5693 142.255 15.452C142.447 15.324 142.612 15.1747 142.751 15.004C142.9 14.8227 143.012 14.6307 143.087 14.428ZM151.207 17.66C150.525 17.66 149.911 17.548 149.367 17.324C148.823 17.0893 148.359 16.7693 147.975 16.364C147.602 15.9587 147.314 15.4947 147.111 14.972C146.909 14.4493 146.807 13.9 146.807 13.324C146.807 12.7373 146.909 12.1827 147.111 11.66C147.314 11.1373 147.602 10.6733 147.975 10.268C148.359 9.86267 148.823 9.548 149.367 9.324C149.911 9.08933 150.525 8.972 151.207 8.972C151.89 8.972 152.498 9.08933 153.031 9.324C153.575 9.548 154.039 9.86267 154.423 10.268C154.807 10.6733 155.095 11.1373 155.287 11.66C155.49 12.1827 155.591 12.7373 155.591 13.324C155.591 13.9 155.49 14.4493 155.287 14.972C155.095 15.4947 154.807 15.9587 154.423 16.364C154.05 16.7693 153.591 17.0893 153.047 17.324C152.503 17.548 151.89 17.66 151.207 17.66ZM149.015 13.324C149.015 13.8147 149.111 14.252 149.303 14.636C149.495 15.0093 149.757 15.3027 150.087 15.516C150.418 15.7293 150.791 15.836 151.207 15.836C151.613 15.836 151.981 15.7293 152.311 15.516C152.642 15.292 152.903 14.9933 153.095 14.62C153.298 14.236 153.399 13.7987 153.399 13.308C153.399 12.828 153.298 12.396 153.095 12.012C152.903 11.628 152.642 11.3293 152.311 11.116C151.981 10.9027 151.613 10.796 151.207 10.796C150.791 10.796 150.418 10.908 150.087 11.132C149.757 11.3453 149.495 11.644 149.303 12.028C149.111 12.4013 149.015 12.8333 149.015 13.324Z" fill="#464646"/>
<defs>
<clipPath id="clip0_1_230">
<rect width="24" height="24" fill="white"/>
</clipPath>
</defs>
</svg>
